<svg xmlns="http://www.w3.org/2000/svg">
  <defs>
    <symbol id="i-projects" viewBox="0 0 24 24">
      <rect x="3.5" y="4" width="7" height="7" rx="1.5" fill="none" stroke="currentColor" stroke-width="1.7"/>
      <rect x="13.5" y="4" width="7" height="7" rx="1.5" fill="none" stroke="currentColor" stroke-width="1.7"/>
      <rect x="3.5" y="14" width="7" height="6" rx="1.5" fill="none" stroke="currentColor" stroke-width="1.7"/>
      <rect x="13.5" y="14" width="7" height="6" rx="1.5" fill="none" stroke="currentColor" stroke-width="1.7"/>
    </symbol>
    <symbol id="i-cluster" viewBox="0 0 24 24">
      <path d="m12 3 8.5 4.3L12 11.6 3.5 7.3 12 3Z" fill="none" stroke="currentColor" stroke-width="1.7" stroke-linejoin="round"/>
      <path d="m4.8 11 7.2 3.6 7.2-3.6M4.8 15.4 12 19l7.2-3.6" fill="none" stroke="currentColor" stroke-width="1.7" stroke-linecap="round" stroke-linejoin="round"/>
    </symbol>
    <symbol id="i-plus" viewBox="0 0 24 24"><path d="M12 5v14M5 12h14" fill="none" stroke="currentColor" stroke-width="1.8" stroke-linecap="round"/></symbol>
    <symbol id="i-search" viewBox="0 0 24 24"><circle cx="10.7" cy="10.7" r="6.7" fill="none" stroke="currentColor" stroke-width="1.8"/><path d="m15.7 15.7 4.1 4.1" fill="none" stroke="currentColor" stroke-width="1.8" stroke-linecap="round"/></symbol>
    <symbol id="i-arrow-right" viewBox="0 0 24 24"><path d="M5 12h14M14 7l5 5-5 5" fill="none" stroke="currentColor" stroke-width="1.8" stroke-linecap="round" stroke-linejoin="round"/></symbol>
    <symbol id="i-arrow-left" viewBox="0 0 24 24"><path d="M19 12H5m5-5-5 5 5 5" fill="none" stroke="currentColor" stroke-width="1.8" stroke-linecap="round" stroke-linejoin="round"/></symbol>
    <symbol id="i-chevron-right" viewBox="0 0 24 24"><path d="m9 6 6 6-6 6" fill="none" stroke="currentColor" stroke-width="1.8" stroke-linecap="round" stroke-linejoin="round"/></symbol>
    <symbol id="i-sun" viewBox="0 0 24 24"><circle cx="12" cy="12" r="3.4" fill="none" stroke="currentColor" stroke-width="1.7"/><path d="M12 2.8v2M12 19.2v2M2.8 12h2M19.2 12h2M5.5 5.5l1.4 1.4M17.1 17.1l1.4 1.4M18.5 5.5l-1.4 1.4M6.9 17.1l-1.4 1.4" fill="none" stroke="currentColor" stroke-width="1.7" stroke-linecap="round"/></symbol>
    <symbol id="i-moon" viewBox="0 0 24 24"><path d="M20 15.3A8.3 8.3 0 0 1 8.7 4a8.3 8.3 0 1 0 11.3 11.3Z" fill="none" stroke="currentColor" stroke-width="1.7" stroke-linejoin="round"/></symbol>
    <symbol id="i-check" viewBox="0 0 24 24"><path d="m5 12.5 4.3 4.2L19 7" fill="none" stroke="currentColor" stroke-width="1.9" stroke-linecap="round" stroke-linejoin="round"/></symbol>
    <symbol id="i-warning" viewBox="0 0 24 24"><path d="M10.1 4.5 2.7 17.3A2 2 0 0 0 4.4 20h15.2a2 2 0 0 0 1.7-2.7L13.9 4.5a2.2 2.2 0 0 0-3.8 0Z" fill="none" stroke="currentColor" stroke-width="1.7" stroke-linejoin="round"/><path d="M12 9v4M12 16.5h.01" fill="none" stroke="currentColor" stroke-width="1.9" stroke-linecap="round"/></symbol>
    <symbol id="i-info" viewBox="0 0 24 24"><circle cx="12" cy="12" r="9" fill="none" stroke="currentColor" stroke-width="1.7"/><path d="M12 10.8v5.4M12 7.5h.01" fill="none" stroke="currentColor" stroke-width="1.9" stroke-linecap="round"/></symbol>
    <symbol id="i-copy" viewBox="0 0 24 24"><rect x="8" y="8" width="11" height="11" rx="2" fill="none" stroke="currentColor" stroke-width="1.7"/><path d="M16 8V6a2 2 0 0 0-2-2H6a2 2 0 0 0-2 2v8a2 2 0 0 0 2 2h2" fill="none" stroke="currentColor" stroke-width="1.7"/></symbol>
    <symbol id="i-terminal" viewBox="0 0 24 24"><rect x="3" y="4" width="18" height="16" rx="2" fill="none" stroke="currentColor" stroke-width="1.7"/><path d="m7 9 3 3-3 3M13 15h4" fill="none" stroke="currentColor" stroke-width="1.7" stroke-linecap="round" stroke-linejoin="round"/></symbol>
    <symbol id="i-cpu" viewBox="0 0 24 24"><rect x="7" y="7" width="10" height="10" rx="2" fill="none" stroke="currentColor" stroke-width="1.7"/><path d="M9 2.8V7M15 2.8V7M9 17v4.2M15 17v4.2M2.8 9H7M17 9h4.2M2.8 15H7M17 15h4.2" fill="none" stroke="currentColor" stroke-width="1.7" stroke-linecap="round"/></symbol>
    <symbol id="i-key" viewBox="0 0 24 24"><circle cx="8" cy="12" r="4" fill="none" stroke="currentColor" stroke-width="1.7"/><path d="M12 12h9M17 12v3M20 12v2" fill="none" stroke="currentColor" stroke-width="1.7" stroke-linecap="round"/></symbol>
    <symbol id="i-link" viewBox="0 0 24 24"><path d="m9.5 14.5 5-5M7.2 16.8l-1.1 1.1a3.2 3.2 0 0 1-4.5-4.5l3-3a3.2 3.2 0 0 1 4.5 0M16.8 7.2l1.1-1.1a3.2 3.2 0 0 1 4.5 4.5l-3 3a3.2 3.2 0 0 1-4.5 0" fill="none" stroke="currentColor" stroke-width="1.7" stroke-linecap="round"/></symbol>
    <symbol id="i-users" viewBox="0 0 24 24"><circle cx="9" cy="8" r="3.2" fill="none" stroke="currentColor" stroke-width="1.7"/><path d="M3.5 19a5.5 5.5 0 0 1 11 0M15.5 5.2a3.2 3.2 0 0 1 0 6.1M17 14a5.5 5.5 0 0 1 3.5 5" fill="none" stroke="currentColor" stroke-width="1.7" stroke-linecap="round"/></symbol>
    <symbol id="i-database" viewBox="0 0 24 24"><ellipse cx="12" cy="5.5" rx="8" ry="3" fill="none" stroke="currentColor" stroke-width="1.7"/><path d="M4 5.5v6c0 1.7 3.6 3 8 3s8-1.3 8-3v-6M4 11.5v6c0 1.7 3.6 3 8 3s8-1.3 8-3v-6" fill="none" stroke="currentColor" stroke-width="1.7"/></symbol>
    <symbol id="i-bolt" viewBox="0 0 24 24"><path d="m13.5 2.8-8 11h6l-1 7.4 8-11h-6l1-7.4Z" fill="none" stroke="currentColor" stroke-width="1.7" stroke-linejoin="round"/></symbol>
    <symbol id="i-lock" viewBox="0 0 24 24"><rect x="5" y="10" width="14" height="10" rx="2" fill="none" stroke="currentColor" stroke-width="1.7"/><path d="M8 10V7a4 4 0 0 1 8 0v3" fill="none" stroke="currentColor" stroke-width="1.7"/></symbol>
    <symbol id="i-git" viewBox="0 0 24 24"><circle cx="6" cy="5" r="2" fill="none" stroke="currentColor" stroke-width="1.7"/><circle cx="18" cy="7" r="2" fill="none" stroke="currentColor" stroke-width="1.7"/><circle cx="6" cy="19" r="2" fill="none" stroke="currentColor" stroke-width="1.7"/><path d="M6 7v10M8 10c5 0 4-3 8-3" fill="none" stroke="currentColor" stroke-width="1.7" stroke-linecap="round"/></symbol>
    <symbol id="i-user" viewBox="0 0 24 24"><circle cx="12" cy="8" r="3.4" fill="none" stroke="currentColor" stroke-width="1.7"/><path d="M5.5 20a6.5 6.5 0 0 1 13 0" fill="none" stroke="currentColor" stroke-width="1.7" stroke-linecap="round"/></symbol>
    <symbol id="i-sliders" viewBox="0 0 24 24"><path d="M4 7h5M15 7h5M4 17h9M19 17h1" fill="none" stroke="currentColor" stroke-width="1.7" stroke-linecap="round"/><circle cx="12" cy="7" r="3" fill="none" stroke="currentColor" stroke-width="1.7"/><circle cx="16" cy="17" r="3" fill="none" stroke="currentColor" stroke-width="1.7"/></symbol>
    <symbol id="i-more" viewBox="0 0 24 24"><circle cx="5" cy="12" r="1.4" fill="currentColor"/><circle cx="12" cy="12" r="1.4" fill="currentColor"/><circle cx="19" cy="12" r="1.4" fill="currentColor"/></symbol>
  </defs>
</svg>
